<!DOCTYPE svg PUBLIC "-//W3C//DTD SVG 1.1//EN" "http://www.w3.org/Graphics/SVG/1.1/DTD/svg11.dtd">
<!-- Uploaded to: SVG Repo, www.svgrepo.com, Transformed by: SVG Repo Mixer Tools -->
<svg height="64px" width="64px" version="1.1" id="Layer_1" xmlns="http://www.w3.org/2000/svg" xmlns:xlink="http://www.w3.org/1999/xlink" viewBox="0 0 432.056 432.056" xml:space="preserve" fill="#000000">
<g id="SVGRepo_bgCarrier" stroke-width="0"/>
<g id="SVGRepo_tracerCarrier" stroke-linecap="round" stroke-linejoin="round"/>
<g id="SVGRepo_iconCarrier"> <path style="fill:#9CE0FF;" d="M353.652,165.228c-6-2-10.4-6.8-12.4-12.8c-16.8-49.2-62.8-84.4-117.6-84.4c-68.4,0-124,55.6-124,124 c0,2.4,0,4.8,0.4,7.2c0.4,7.2-5.2,13.6-12.4,13.2c-1.2,0-2.4,0-3.6,0c-42.8,0-77.6,35.6-76,78.8c1.2,40.8,36.4,72.8,77.6,72.8h234 c56,0,103.6-44.4,104.4-100.4C424.452,217.628,394.852,178.828,353.652,165.228z"/> <path style="fill:#61A1DD;" d="M319.652,372.028h-234c-46,0-84.4-36-85.6-80.4c-0.8-23.2,7.6-44.8,23.6-61.6s37.6-25.6,60.4-25.6 h3.6h0.4c0.8,0,2-0.4,2.4-1.2c0.8-0.8,1.2-2,1.2-3.6c0-2.4,0-5.2,0-7.6c0-72.8,59.2-132,132-132c56.4,0,106.8,36,125.2,90 c1.2,4,4,6.8,7.2,7.6c46,15.2,76.4,57.6,76,106C431.252,323.628,380.852,372.028,319.652,372.028z M84.052,220.428 c-18.8,0-36,7.6-49.2,20.8c-12.8,13.6-19.6,31.2-18.8,49.6c1.2,36,32.4,65.2,69.6,65.2h234c52.4,0,95.6-41.6,96.4-92.4 c0.4-41.2-25.6-77.6-64.8-90.8l0,0c-8.4-2.8-14.4-9.2-17.6-18c-16-47.2-60.4-78.8-110-78.8c-64,0-116,52-116,116c0,2,0,4,0.4,6 c0,0.4,0,0.4,0,0.8c0.4,6-2,11.6-6,16c-4,4-9.2,6-14.4,5.6H84.052z"/> <g> <path style="fill:#FFFFFF;" d="M147.652,200.028c-4.4,0-8-3.6-8-8s0-8.8,0.8-13.6c0.8-4.4,5.2-7.2,9.6-6.4c4.4,0.8,7.2,5.2,6.4,9.6 c-0.8,3.2-0.8,6.8-0.8,10.4C155.652,196.428,152.052,200.028,147.652,200.028z"/> <path style="fill:#FFFFFF;" d="M164.852,152.028c-1.6,0-3.6-0.4-5.2-1.6c-3.6-2.8-4-8-1.2-11.2c16-19.6,39.6-30.8,65.2-30.8 c8.4,0,17.2,1.6,26.4,4.4c4.4,1.2,6.4,6,5.2,10c-1.2,4.4-6,6.4-10,5.2c-7.6-2.8-14.8-4-21.6-4c-20.4,0-39.6,9.2-52.4,25.2 C169.652,150.828,167.252,152.028,164.852,152.028z"/> </g> </g>
</svg>